<mxfile host="Electron" modified="2024-09-28T21:29:25.768Z" agent="Mozilla/5.0 (Windows NT 10.0; Win64; x64) AppleWebKit/537.36 (KHTML, like Gecko) draw.io/21.1.2 Chrome/106.0.5249.199 Electron/21.4.3 Safari/537.36" etag="XaeAXDCj5oYTy3hzPQB8" version="21.1.2" type="device">
  <diagram name="Page-1" id="X_3_mZFfbarvlg9JXjyb">
    <mxGraphModel dx="523" dy="394" grid="1" gridSize="10" guides="1" tooltips="1" connect="1" arrows="1" fold="1" page="1" pageScale="1" pageWidth="850" pageHeight="1100" math="0" shadow="0">
      <root>
        <mxCell id="0" />
        <mxCell id="1" parent="0" />
        <mxCell id="R_nvRkj25R-wKVV0i9Eg-1" value="" style="whiteSpace=wrap;html=1;aspect=fixed;" vertex="1" parent="1">
          <mxGeometry x="360" y="360" width="200" height="200" as="geometry" />
        </mxCell>
        <mxCell id="R_nvRkj25R-wKVV0i9Eg-2" value="" style="whiteSpace=wrap;html=1;aspect=fixed;" vertex="1" parent="1">
          <mxGeometry x="360" y="360" width="25" height="25" as="geometry" />
        </mxCell>
        <mxCell id="R_nvRkj25R-wKVV0i9Eg-3" value="" style="whiteSpace=wrap;html=1;aspect=fixed;fillColor=#000000;" vertex="1" parent="1">
          <mxGeometry x="385" y="360" width="25" height="25" as="geometry" />
        </mxCell>
        <mxCell id="R_nvRkj25R-wKVV0i9Eg-4" value="" style="whiteSpace=wrap;html=1;aspect=fixed;" vertex="1" parent="1">
          <mxGeometry x="410" y="360" width="25" height="25" as="geometry" />
        </mxCell>
        <mxCell id="R_nvRkj25R-wKVV0i9Eg-5" value="" style="whiteSpace=wrap;html=1;aspect=fixed;fillColor=#000000;" vertex="1" parent="1">
          <mxGeometry x="435" y="360" width="25" height="25" as="geometry" />
        </mxCell>
        <mxCell id="R_nvRkj25R-wKVV0i9Eg-6" value="" style="whiteSpace=wrap;html=1;aspect=fixed;" vertex="1" parent="1">
          <mxGeometry x="460" y="360" width="25" height="25" as="geometry" />
        </mxCell>
        <mxCell id="R_nvRkj25R-wKVV0i9Eg-7" value="" style="whiteSpace=wrap;html=1;aspect=fixed;fillColor=#000000;" vertex="1" parent="1">
          <mxGeometry x="485" y="360" width="25" height="25" as="geometry" />
        </mxCell>
        <mxCell id="R_nvRkj25R-wKVV0i9Eg-8" value="" style="whiteSpace=wrap;html=1;aspect=fixed;" vertex="1" parent="1">
          <mxGeometry x="510" y="360" width="25" height="25" as="geometry" />
        </mxCell>
        <mxCell id="R_nvRkj25R-wKVV0i9Eg-9" value="" style="whiteSpace=wrap;html=1;aspect=fixed;fillColor=#000000;" vertex="1" parent="1">
          <mxGeometry x="535" y="360" width="25" height="25" as="geometry" />
        </mxCell>
        <mxCell id="R_nvRkj25R-wKVV0i9Eg-10" value="" style="whiteSpace=wrap;html=1;aspect=fixed;fillColor=#DD3131;" vertex="1" parent="1">
          <mxGeometry x="535" y="385" width="25" height="25" as="geometry" />
        </mxCell>
        <mxCell id="R_nvRkj25R-wKVV0i9Eg-11" value="" style="whiteSpace=wrap;html=1;aspect=fixed;fillColor=#000000;" vertex="1" parent="1">
          <mxGeometry x="535" y="410" width="25" height="25" as="geometry" />
        </mxCell>
        <mxCell id="R_nvRkj25R-wKVV0i9Eg-12" value="" style="whiteSpace=wrap;html=1;aspect=fixed;" vertex="1" parent="1">
          <mxGeometry x="535" y="435" width="25" height="25" as="geometry" />
        </mxCell>
        <mxCell id="R_nvRkj25R-wKVV0i9Eg-13" value="" style="whiteSpace=wrap;html=1;aspect=fixed;fillColor=#000000;" vertex="1" parent="1">
          <mxGeometry x="535" y="460" width="25" height="25" as="geometry" />
        </mxCell>
        <mxCell id="R_nvRkj25R-wKVV0i9Eg-14" value="" style="whiteSpace=wrap;html=1;aspect=fixed;fillColor=#DD3131;" vertex="1" parent="1">
          <mxGeometry x="535" y="485" width="25" height="25" as="geometry" />
        </mxCell>
        <mxCell id="R_nvRkj25R-wKVV0i9Eg-15" value="" style="whiteSpace=wrap;html=1;aspect=fixed;fillColor=#000000;" vertex="1" parent="1">
          <mxGeometry x="535" y="510" width="25" height="25" as="geometry" />
        </mxCell>
        <mxCell id="R_nvRkj25R-wKVV0i9Eg-16" value="" style="whiteSpace=wrap;html=1;aspect=fixed;fillColor=#DD3131;" vertex="1" parent="1">
          <mxGeometry x="535" y="535" width="25" height="25" as="geometry" />
        </mxCell>
        <mxCell id="R_nvRkj25R-wKVV0i9Eg-17" value="" style="whiteSpace=wrap;html=1;aspect=fixed;fillColor=#000000;" vertex="1" parent="1">
          <mxGeometry x="510" y="535" width="25" height="25" as="geometry" />
        </mxCell>
        <mxCell id="R_nvRkj25R-wKVV0i9Eg-18" value="" style="whiteSpace=wrap;html=1;aspect=fixed;fillColor=#DD3131;" vertex="1" parent="1">
          <mxGeometry x="485" y="535" width="25" height="25" as="geometry" />
        </mxCell>
        <mxCell id="R_nvRkj25R-wKVV0i9Eg-19" value="" style="whiteSpace=wrap;html=1;aspect=fixed;fillColor=#000000;" vertex="1" parent="1">
          <mxGeometry x="460" y="535" width="25" height="25" as="geometry" />
        </mxCell>
        <mxCell id="R_nvRkj25R-wKVV0i9Eg-20" value="" style="whiteSpace=wrap;html=1;aspect=fixed;fillColor=#DD3131;" vertex="1" parent="1">
          <mxGeometry x="435" y="535" width="25" height="25" as="geometry" />
        </mxCell>
        <mxCell id="R_nvRkj25R-wKVV0i9Eg-21" value="" style="whiteSpace=wrap;html=1;aspect=fixed;fillColor=#000000;" vertex="1" parent="1">
          <mxGeometry x="410" y="535" width="25" height="25" as="geometry" />
        </mxCell>
        <mxCell id="R_nvRkj25R-wKVV0i9Eg-22" value="" style="whiteSpace=wrap;html=1;aspect=fixed;fillColor=#000000;" vertex="1" parent="1">
          <mxGeometry x="360" y="535" width="25" height="25" as="geometry" />
        </mxCell>
        <mxCell id="R_nvRkj25R-wKVV0i9Eg-23" value="" style="whiteSpace=wrap;html=1;aspect=fixed;fillColor=#DD3131;" vertex="1" parent="1">
          <mxGeometry x="385" y="535" width="25" height="25" as="geometry" />
        </mxCell>
        <mxCell id="R_nvRkj25R-wKVV0i9Eg-24" value="" style="whiteSpace=wrap;html=1;aspect=fixed;fillColor=#DD3131;" vertex="1" parent="1">
          <mxGeometry x="360" y="510" width="25" height="25" as="geometry" />
        </mxCell>
        <mxCell id="R_nvRkj25R-wKVV0i9Eg-25" value="" style="whiteSpace=wrap;html=1;aspect=fixed;fillColor=#000000;" vertex="1" parent="1">
          <mxGeometry x="360" y="485" width="25" height="25" as="geometry" />
        </mxCell>
        <mxCell id="R_nvRkj25R-wKVV0i9Eg-26" value="" style="whiteSpace=wrap;html=1;aspect=fixed;" vertex="1" parent="1">
          <mxGeometry x="360" y="460" width="25" height="25" as="geometry" />
        </mxCell>
        <mxCell id="R_nvRkj25R-wKVV0i9Eg-27" value="" style="whiteSpace=wrap;html=1;aspect=fixed;fillColor=#000000;" vertex="1" parent="1">
          <mxGeometry x="360" y="435" width="25" height="25" as="geometry" />
        </mxCell>
        <mxCell id="R_nvRkj25R-wKVV0i9Eg-28" value="" style="whiteSpace=wrap;html=1;aspect=fixed;" vertex="1" parent="1">
          <mxGeometry x="360" y="410" width="25" height="25" as="geometry" />
        </mxCell>
        <mxCell id="R_nvRkj25R-wKVV0i9Eg-29" value="" style="whiteSpace=wrap;html=1;aspect=fixed;fillColor=#000000;" vertex="1" parent="1">
          <mxGeometry x="360" y="385" width="25" height="25" as="geometry" />
        </mxCell>
        <mxCell id="R_nvRkj25R-wKVV0i9Eg-30" value="" style="whiteSpace=wrap;html=1;aspect=fixed;fillColor=#DD3131;" vertex="1" parent="1">
          <mxGeometry x="385" y="385" width="25" height="25" as="geometry" />
        </mxCell>
        <mxCell id="R_nvRkj25R-wKVV0i9Eg-31" value="" style="whiteSpace=wrap;html=1;aspect=fixed;fillColor=#000000;" vertex="1" parent="1">
          <mxGeometry x="410" y="385" width="25" height="25" as="geometry" />
        </mxCell>
        <mxCell id="R_nvRkj25R-wKVV0i9Eg-32" value="" style="whiteSpace=wrap;html=1;aspect=fixed;fillColor=#DD3131;" vertex="1" parent="1">
          <mxGeometry x="435" y="385" width="25" height="25" as="geometry" />
        </mxCell>
        <mxCell id="R_nvRkj25R-wKVV0i9Eg-33" value="" style="whiteSpace=wrap;html=1;aspect=fixed;fillColor=#000000;" vertex="1" parent="1">
          <mxGeometry x="460" y="385" width="25" height="25" as="geometry" />
        </mxCell>
        <mxCell id="R_nvRkj25R-wKVV0i9Eg-34" value="" style="whiteSpace=wrap;html=1;aspect=fixed;fillColor=#DD3131;" vertex="1" parent="1">
          <mxGeometry x="485" y="385" width="25" height="25" as="geometry" />
        </mxCell>
        <mxCell id="R_nvRkj25R-wKVV0i9Eg-35" value="" style="whiteSpace=wrap;html=1;aspect=fixed;fillColor=#000000;" vertex="1" parent="1">
          <mxGeometry x="510" y="385" width="25" height="25" as="geometry" />
        </mxCell>
        <mxCell id="R_nvRkj25R-wKVV0i9Eg-36" value="" style="whiteSpace=wrap;html=1;aspect=fixed;" vertex="1" parent="1">
          <mxGeometry x="510" y="410" width="25" height="25" as="geometry" />
        </mxCell>
        <mxCell id="R_nvRkj25R-wKVV0i9Eg-37" value="" style="whiteSpace=wrap;html=1;aspect=fixed;fillColor=#000000;" vertex="1" parent="1">
          <mxGeometry x="485" y="410" width="25" height="25" as="geometry" />
        </mxCell>
        <mxCell id="R_nvRkj25R-wKVV0i9Eg-38" value="" style="whiteSpace=wrap;html=1;aspect=fixed;" vertex="1" parent="1">
          <mxGeometry x="460" y="410" width="25" height="25" as="geometry" />
        </mxCell>
        <mxCell id="R_nvRkj25R-wKVV0i9Eg-39" value="" style="whiteSpace=wrap;html=1;aspect=fixed;fillColor=#000000;" vertex="1" parent="1">
          <mxGeometry x="435" y="410" width="25" height="25" as="geometry" />
        </mxCell>
        <mxCell id="R_nvRkj25R-wKVV0i9Eg-40" value="" style="whiteSpace=wrap;html=1;aspect=fixed;" vertex="1" parent="1">
          <mxGeometry x="410" y="410" width="25" height="25" as="geometry" />
        </mxCell>
        <mxCell id="R_nvRkj25R-wKVV0i9Eg-41" value="" style="whiteSpace=wrap;html=1;aspect=fixed;fillColor=#000000;" vertex="1" parent="1">
          <mxGeometry x="385" y="410" width="25" height="25" as="geometry" />
        </mxCell>
        <mxCell id="R_nvRkj25R-wKVV0i9Eg-42" value="" style="whiteSpace=wrap;html=1;aspect=fixed;" vertex="1" parent="1">
          <mxGeometry x="385" y="435" width="25" height="25" as="geometry" />
        </mxCell>
        <mxCell id="R_nvRkj25R-wKVV0i9Eg-43" value="" style="whiteSpace=wrap;html=1;aspect=fixed;fillColor=#000000;" vertex="1" parent="1">
          <mxGeometry x="385" y="460" width="25" height="25" as="geometry" />
        </mxCell>
        <mxCell id="R_nvRkj25R-wKVV0i9Eg-44" value="" style="whiteSpace=wrap;html=1;aspect=fixed;fillColor=#DD3131;" vertex="1" parent="1">
          <mxGeometry x="385" y="485" width="25" height="25" as="geometry" />
        </mxCell>
        <mxCell id="R_nvRkj25R-wKVV0i9Eg-45" value="" style="whiteSpace=wrap;html=1;aspect=fixed;fillColor=#000000;" vertex="1" parent="1">
          <mxGeometry x="385" y="510" width="25" height="25" as="geometry" />
        </mxCell>
        <mxCell id="R_nvRkj25R-wKVV0i9Eg-46" value="" style="whiteSpace=wrap;html=1;aspect=fixed;fillColor=#DD3131;" vertex="1" parent="1">
          <mxGeometry x="410" y="510" width="25" height="25" as="geometry" />
        </mxCell>
        <mxCell id="R_nvRkj25R-wKVV0i9Eg-47" value="" style="whiteSpace=wrap;html=1;aspect=fixed;fillColor=#000000;" vertex="1" parent="1">
          <mxGeometry x="435" y="510" width="25" height="25" as="geometry" />
        </mxCell>
        <mxCell id="R_nvRkj25R-wKVV0i9Eg-48" value="" style="whiteSpace=wrap;html=1;aspect=fixed;fillColor=#DD3131;" vertex="1" parent="1">
          <mxGeometry x="460" y="510" width="25" height="25" as="geometry" />
        </mxCell>
        <mxCell id="R_nvRkj25R-wKVV0i9Eg-49" value="" style="whiteSpace=wrap;html=1;aspect=fixed;fillColor=#000000;" vertex="1" parent="1">
          <mxGeometry x="485" y="510" width="25" height="25" as="geometry" />
        </mxCell>
        <mxCell id="R_nvRkj25R-wKVV0i9Eg-50" value="" style="whiteSpace=wrap;html=1;aspect=fixed;fillColor=#DD3131;" vertex="1" parent="1">
          <mxGeometry x="510" y="510" width="25" height="25" as="geometry" />
        </mxCell>
        <mxCell id="R_nvRkj25R-wKVV0i9Eg-51" value="" style="whiteSpace=wrap;html=1;aspect=fixed;fillColor=#000000;" vertex="1" parent="1">
          <mxGeometry x="510" y="485" width="25" height="25" as="geometry" />
        </mxCell>
        <mxCell id="R_nvRkj25R-wKVV0i9Eg-52" value="" style="whiteSpace=wrap;html=1;aspect=fixed;fillColor=#DD3131;" vertex="1" parent="1">
          <mxGeometry x="510" y="460" width="25" height="25" as="geometry" />
        </mxCell>
        <mxCell id="R_nvRkj25R-wKVV0i9Eg-53" value="" style="whiteSpace=wrap;html=1;aspect=fixed;fillColor=#000000;" vertex="1" parent="1">
          <mxGeometry x="510" y="435" width="25" height="25" as="geometry" />
        </mxCell>
        <mxCell id="R_nvRkj25R-wKVV0i9Eg-54" value="" style="whiteSpace=wrap;html=1;aspect=fixed;" vertex="1" parent="1">
          <mxGeometry x="485" y="435" width="25" height="25" as="geometry" />
        </mxCell>
        <mxCell id="R_nvRkj25R-wKVV0i9Eg-55" value="" style="whiteSpace=wrap;html=1;aspect=fixed;fillColor=#000000;" vertex="1" parent="1">
          <mxGeometry x="460" y="435" width="25" height="25" as="geometry" />
        </mxCell>
        <mxCell id="R_nvRkj25R-wKVV0i9Eg-56" value="" style="whiteSpace=wrap;html=1;aspect=fixed;" vertex="1" parent="1">
          <mxGeometry x="435" y="435" width="25" height="25" as="geometry" />
        </mxCell>
        <mxCell id="R_nvRkj25R-wKVV0i9Eg-57" value="" style="whiteSpace=wrap;html=1;aspect=fixed;fillColor=#000000;" vertex="1" parent="1">
          <mxGeometry x="410" y="435" width="25" height="25" as="geometry" />
        </mxCell>
        <mxCell id="R_nvRkj25R-wKVV0i9Eg-58" value="" style="whiteSpace=wrap;html=1;aspect=fixed;fillColor=#DD3131;" vertex="1" parent="1">
          <mxGeometry x="410" y="460" width="25" height="25" as="geometry" />
        </mxCell>
        <mxCell id="R_nvRkj25R-wKVV0i9Eg-59" value="" style="whiteSpace=wrap;html=1;aspect=fixed;fillColor=#000000;" vertex="1" parent="1">
          <mxGeometry x="410" y="485" width="25" height="25" as="geometry" />
        </mxCell>
        <mxCell id="R_nvRkj25R-wKVV0i9Eg-60" value="" style="whiteSpace=wrap;html=1;aspect=fixed;fillColor=#DD3131;" vertex="1" parent="1">
          <mxGeometry x="435" y="485" width="25" height="25" as="geometry" />
        </mxCell>
        <mxCell id="R_nvRkj25R-wKVV0i9Eg-61" value="" style="whiteSpace=wrap;html=1;aspect=fixed;fillColor=#000000;" vertex="1" parent="1">
          <mxGeometry x="460" y="485" width="25" height="25" as="geometry" />
        </mxCell>
        <mxCell id="R_nvRkj25R-wKVV0i9Eg-62" value="" style="whiteSpace=wrap;html=1;aspect=fixed;fillColor=#DD3131;" vertex="1" parent="1">
          <mxGeometry x="485" y="485" width="25" height="25" as="geometry" />
        </mxCell>
        <mxCell id="R_nvRkj25R-wKVV0i9Eg-63" value="" style="whiteSpace=wrap;html=1;aspect=fixed;fillColor=#000000;" vertex="1" parent="1">
          <mxGeometry x="485" y="460" width="25" height="25" as="geometry" />
        </mxCell>
        <mxCell id="R_nvRkj25R-wKVV0i9Eg-64" value="" style="whiteSpace=wrap;html=1;aspect=fixed;fillColor=#DD3131;" vertex="1" parent="1">
          <mxGeometry x="460" y="460" width="25" height="25" as="geometry" />
        </mxCell>
        <mxCell id="R_nvRkj25R-wKVV0i9Eg-65" value="" style="whiteSpace=wrap;html=1;aspect=fixed;fillColor=#000000;" vertex="1" parent="1">
          <mxGeometry x="435" y="460" width="25" height="25" as="geometry" />
        </mxCell>
        <mxCell id="R_nvRkj25R-wKVV0i9Eg-66" value="" style="whiteSpace=wrap;html=1;aspect=fixed;fillColor=#DD3131;" vertex="1" parent="1">
          <mxGeometry x="360" y="360" width="25" height="25" as="geometry" />
        </mxCell>
        <mxCell id="R_nvRkj25R-wKVV0i9Eg-67" value="" style="whiteSpace=wrap;html=1;aspect=fixed;fillColor=#DD3131;" vertex="1" parent="1">
          <mxGeometry x="410" y="360" width="25" height="25" as="geometry" />
        </mxCell>
        <mxCell id="R_nvRkj25R-wKVV0i9Eg-68" value="" style="whiteSpace=wrap;html=1;aspect=fixed;fillColor=#DD3131;" vertex="1" parent="1">
          <mxGeometry x="460" y="360" width="25" height="25" as="geometry" />
        </mxCell>
        <mxCell id="R_nvRkj25R-wKVV0i9Eg-69" value="" style="whiteSpace=wrap;html=1;aspect=fixed;fillColor=#DD3131;" vertex="1" parent="1">
          <mxGeometry x="510" y="360" width="25" height="25" as="geometry" />
        </mxCell>
        <mxCell id="R_nvRkj25R-wKVV0i9Eg-70" value="" style="whiteSpace=wrap;html=1;aspect=fixed;fillColor=#DD3131;" vertex="1" parent="1">
          <mxGeometry x="360" y="410" width="25" height="25" as="geometry" />
        </mxCell>
        <mxCell id="R_nvRkj25R-wKVV0i9Eg-71" value="" style="whiteSpace=wrap;html=1;aspect=fixed;fillColor=#DD3131;" vertex="1" parent="1">
          <mxGeometry x="410" y="410" width="25" height="25" as="geometry" />
        </mxCell>
        <mxCell id="R_nvRkj25R-wKVV0i9Eg-72" value="" style="whiteSpace=wrap;html=1;aspect=fixed;fillColor=#DD3131;" vertex="1" parent="1">
          <mxGeometry x="460" y="410" width="25" height="25" as="geometry" />
        </mxCell>
        <mxCell id="R_nvRkj25R-wKVV0i9Eg-73" value="" style="whiteSpace=wrap;html=1;aspect=fixed;fillColor=#DD3131;" vertex="1" parent="1">
          <mxGeometry x="510" y="410" width="25" height="25" as="geometry" />
        </mxCell>
        <mxCell id="R_nvRkj25R-wKVV0i9Eg-74" value="" style="whiteSpace=wrap;html=1;aspect=fixed;fillColor=#DD3131;" vertex="1" parent="1">
          <mxGeometry x="535" y="435" width="25" height="25" as="geometry" />
        </mxCell>
        <mxCell id="R_nvRkj25R-wKVV0i9Eg-75" value="" style="whiteSpace=wrap;html=1;aspect=fixed;fillColor=#DD3131;" vertex="1" parent="1">
          <mxGeometry x="485" y="435" width="25" height="25" as="geometry" />
        </mxCell>
        <mxCell id="R_nvRkj25R-wKVV0i9Eg-76" value="" style="whiteSpace=wrap;html=1;aspect=fixed;fillColor=#DD3131;" vertex="1" parent="1">
          <mxGeometry x="435" y="435" width="25" height="25" as="geometry" />
        </mxCell>
        <mxCell id="R_nvRkj25R-wKVV0i9Eg-77" value="" style="whiteSpace=wrap;html=1;aspect=fixed;fillColor=#DD3131;" vertex="1" parent="1">
          <mxGeometry x="385" y="435" width="25" height="25" as="geometry" />
        </mxCell>
        <mxCell id="R_nvRkj25R-wKVV0i9Eg-78" value="" style="whiteSpace=wrap;html=1;aspect=fixed;fillColor=#DD3131;" vertex="1" parent="1">
          <mxGeometry x="360" y="460" width="25" height="25" as="geometry" />
        </mxCell>
      </root>
    </mxGraphModel>
  </diagram>
</mxfile>
